#!OML:ASF F:\VICON\USERDATA\INSTALL\rory3\rory3.ASF
:FULLY-SPECIFIED
:DEGREES
95
root -0.4137176310374651 17.144893237528745 53.82151924561744 -1.0904396452711222 0.853756543260553 -2.79161867559187
lfemur -7.8332125016308485 -1.301559426308467 -16.692159541581724
ltibia 84.24856790650782
lfoot 14.770516514478897 -17.019331987445838
ltoes -4.762551821553868
rfemur -23.101909760134703 3.9818412444978577 31.14422536866468
rtibia 47.575839284899686
rfoot -4.551999445861801 -4.858252686401429
rtoes 13.27072861006701
lowerback 12.855165587795714 -0.9361450782363427 0.9753817844655754
upperback 0.0960259496518423 -0.9606170597138051 2.889739841758328
thorax -7.3155376537689865 -0.45483571666685385 2.3392845419031754
lowerneck -16.420436532915698 -2.829946779800186 -3.5182081243137904
upperneck 18.544776906315562 -3.132033487403995 2.601895328095245
head 8.569481352847118 -1.5127610719263338 1.1955524042214773
lclavicle -1.6734099078296539e-15 -3.590631934075299e-15
lhumerus -37.03934242768261 -6.102157581900368 90.25058296402021
lradius 73.22662387976922
lwrist 19.057774810292088
lhand -31.537989756065958 11.020285320233992
lfingers 7.125019999999999
lthumb -5.32342724017059 40.499534928476315
rclavicle -1.6746796171066458e-15 -3.591509845472979e-15
rhumerus -43.91521620848846 -11.23801474890478 -81.39862594997615
rradius 56.272386897245816
rwrist 1.925048928995218
rhand -18.44158299946469 30.04599603714941
rfingers 7.125019999999999
rthumb 7.8529841748524465 0.12118431390739365
96
root -0.4248103162591579 17.155089248546275 54.02397060047879 -1.1911750839036568 0.574083769248177 -3.8908121955792403
lfemur -13.620608238503564 -0.18787214463809354 -14.885551750577829
ltibia 91.04548157450236
lfoot 5.398344310845024 -12.201809223347162
ltoes -4.834660215763913
rfemur -19.77678971956843 4.032431813551038 33.22119816789049
rtibia 49.25897184312954
rfoot -7.46309430476252 -5.769896376996637
rtoes 12.44015330352653
lowerback 13.460901549690286 -0.7643633798130387 2.1228708930432965
upperback 0.1359785084423345 -0.4792164485329975 3.0451924183193717
thorax -7.585006093144139 -0.23915983737444868 1.6467212449317303
lowerneck -16.15730044678427 -2.956985488513533 -3.484385659124797
upperneck 18.6959034369247 -3.293160289868804 2.5893607504846097
head 8.589679520879418 -1.5841826018868987 1.160040346522279
lclavicle -1.6732854555793957e-15 -3.5905437962023205e-15
lhumerus -38.83221933316522 -5.277088720971642 90.44362979059251
lradius 71.37871405680914
lwrist 17.79337478654421
lhand -31.311724095173258 11.131677763084861
lfingers 7.125019999999999
lthumb -5.0218560710253355 40.69970859234352
rclavicle -1.6745412354684818e-15 -3.591411941099082e-15
rhumerus -42.243413778188405 -9.938309087354895 -82.75487868248835
rradius 57.865509643949615
rwrist 0.3372758911842082
rhand -18.483062022499478 29.642388513263228
rfingers 7.125019999999999
rthumb 7.815589208627424 -0.5445146969644268
97
root -0.42094268187409767 17.17510586146007 54.172708721167666 -0.8086485218228203 0.3871381851458373 -5.055756783013459
lfemur -19.56353214538992 0.47710519757122616 -13.208509672124402
ltibia 93.36265974133191
lfoot -0.9408885763911853 -8.342759696097247
ltoes -4.285018573636773
rfemur -16.4689940554687 4.158530946553897 34.849856553612106
rtibia 50.23885150974648
rfoot -10.470329739165617 -7.1165172159170185
rtoes 10.940040683766746
lowerback 13.739081342189124 -0.5165788188464417 3.271454180141444
upperback 0.07276636583834262 0.06234502708349576 3.1410510891383523
thorax -7.593666488272197 -0.012644909945390692 0.846541951436004
lowerneck -16.106425646097417 -3.071605406995496 -3.3876355346567664
upperneck 18.925159110203836 -3.451852802112394 2.5321001431101466
head 8.640069739866597 -1.6501844946985056 1.1107124287947523
lclavicle -1.6737308148405767e-15 -3.590861865121881e-15
lhumerus -40.533143092482206 -4.4016660497612845 90.48833550939487
lradius 69.25845302838253
lwrist 18.919509093243267
lhand -31.052334116553695 11.212605098220301
lfingers 7.125019999999999
lthumb -4.673795116053997 40.95565811788241
rclavicle -1.6745786526583342e-15 -3.5914384003075415e-15
rhumerus -40.460825714258284 -8.254431339865079 -84.26166849462737
rradius 60.00284053918331
rwrist -1.7858875573782846
rhand -18.487390765242722 29.24773886795259
rfingers 7.125019999999999
rthumb 7.733217452895782 -1.238839139021509
98
root -0.4139679965595189 17.18762107368886 54.07654777868515 -0.5201810190481273 0.343633376288361 -5.158738578315902
lfemur -24.784138769043498 0.17146281962543553 -12.792975857780592
ltibia 91.35871341450061
lfoot -3.894836550207968 -4.798796574271993
ltoes -4.825795446416249
rfemur -13.292547720943713 3.9386126343399055 35.2858698856639
rtibia 50.97110893608931
rfoot -13.116758771798182 -8.704514176615842
rtoes 8.44116411043433
lowerback 13.973950652233064 -0.24934472723741224 3.5368664700877424
upperback 0.11141700685993372 0.4311381720287119 3.0023225345915865
thorax -7.624536688639038 0.14717670330626761 0.27717930880494257
lowerneck -16.225807604050903 -3.2021954021146164 -3.305331318863011
upperneck 18.963831636548598 -3.6279780747040875 2.642971590395115
head 8.665373245640083 -1.709121676572681 1.1304307656460895
lclavicle -1.6734719404925697e-15 -3.5906776739521314e-15
lhumerus -42.098269698608924 -3.5392566609073377 90.42973730862708
lradius 67.26068184767286
lwrist 19.76742452364453
lhand -31.059045581505487 11.349051559052535
lfingers 7.125019999999999
lthumb -4.542992117673072 41.11003111040991
rclavicle -1.6736584162519133e-15 -3.590787720685215e-15
rhumerus -38.557595501397614 -6.449619019330317 -85.61534701917533
rradius 62.204109152410794
rwrist -3.361997381765099
rhand -18.476747245842837 28.965711756779125
rfingers 7.125019999999999
rthumb 7.596093028549938 -1.2981740084762663
99
root -0.4000323943981194 17.22046845054664 54.160050369287575 -0.0568312073885896 0.46904652519753764 -4.889571294210932
lfemur -28.589036954476036 -0.8595000982561192 -12.728276494050169
ltibia 85.8370429647413
lfoot -4.610747512998234 -2.1318155086439985
ltoes -2.7190740590308864
rfemur -10.364435962962036 3.7980635187546854 35.20941143431768
rtibia 51.39663089165162
rfoot -14.931143258640567 -10.456298504624828
rtoes 6.083269696588236
lowerback 13.847446277692077 -0.01500223291096453 3.461032104915131
upperback 0.16995103382576537 0.7089515047682253 2.7951050406372415
thorax -7.402905994442588 0.27959838351407423 -0.15644900557676178
lowerneck -16.491951586332668 -3.278138862494149 -3.2186574858445347
upperneck 18.90978127114408 -3.735801324742338 2.6897526301781074
head 8.672165146001982 -1.7529502265108896 1.1295016862398886
lclavicle -1.6741859570624723e-15 -3.591184747049557e-15
lhumerus -43.561011538948186 -2.935050981107959 90.3528900678828
lradius 65.40016788521189
lwrist 20.01880258127095
lhand -30.928996570216523 11.468347418022208
lfingers 7.125019999999999
lthumb -4.4432759701636035 41.226997255713435
rclavicle -1.6738461004822298e-15 -3.590920444608799e-15
rhumerus -36.871816414546984 -4.95515849713311 -86.59240631128466
rradius 64.29964039501492
rwrist -4.255822217556662
rhand -18.542924198154328 29.031405781810882
rfingers 7.125019999999999
rthumb 7.451926532357729 -0.7895711619192223
100
root -0.3812560349750526 17.257330795550963 54.64679343134247 0.4701873806426 0.6241058215492605 -4.31838198642559
lfemur -30.68747842724618 -2.7011933751491433 -12.868996830125791
ltibia 77.07909761946767
lfoot -4.748846333693908 -0.6943510049186132
ltoes -1.2828724777552756
rfemur -7.386462571029892 3.6417979722584923 34.63776398093201
rtibia 51.47638716408001
rfoot -16.644129296014675 -12.276758009936138
rtoes 3.2223885878987235
lowerback 13.473508503247544 0.16194935642854724 3.2019947318055864
upperback 0.17321418907021324 0.88514489541926 2.549769754446815
thorax -7.091717644057156 0.36330633801008405 -0.4684884620220833
lowerneck -16.792328262603593 -3.3114101342251656 -3.1137063864979497
upperneck 18.874251305621687 -3.7927665829084662 2.713109041573377
head 8.696105867872472 -1.7746814154103068 1.1255517220393572
lclavicle -1.6737124513135217e-15 -3.590852584067772e-15
lhumerus -44.97065346716364 -2.2445194342511714 90.10525119504679
lradius 63.54260027751493
lwrist 19.63712162522694
lhand -30.608121291512674 11.423721361308004
lfingers 7.125019999999999
lthumb -4.165335342506263 41.23682077982918
rclavicle -1.6719512655420988e-15 -3.589580583858465e-15
rhumerus -35.60222674930253 -3.9533032360559397 -87.25090153873984
rradius 66.1369740695513
rwrist -4.613238186372457
rhand -18.60907277691324 29.147592945438134
rfingers 7.125019999999999
rthumb 7.394541988310137 -0.5565722047291005
